<?xml version="1.0" encoding="UTF-8" standalone="no"?>
<!DOCTYPE svg PUBLIC "-//W3C//DTD SVG 1.1//EN" "http://www.w3.org/Graphics/SVG/1.1/DTD/svg11.dtd">
<svg width="100%" height="100%" viewBox="0 0 120 120" version="1.1" xmlns="http://www.w3.org/2000/svg" xmlns:xlink="http://www.w3.org/1999/xlink" xml:space="preserve" xmlns:serif="http://www.serif.com/" style="fill-rule:evenodd;clip-rule:evenodd;stroke-linecap:round;stroke-linejoin:round;stroke-miterlimit:1.5;">
    <g id="top-filmstrip" serif:id="top filmstrip">
        <g transform="matrix(1,0,0,1.15541,-5.32907e-15,1.46343)">
            <rect x="0" y="0" width="120" height="12.124" style="fill:white;stroke:black;stroke-width:2.78px;"/>
        </g>
        <g transform="matrix(1,0,0,1,-4.89128,-29.3003)">
            <path d="M24.741,31.695L24.741,44.771" style="fill:none;stroke:black;stroke-width:3px;"/>
        </g>
        <g transform="matrix(1,0,0,1,15.2477,-29.3003)">
            <path d="M24.741,31.695L24.741,44.771" style="fill:none;stroke:black;stroke-width:3px;"/>
        </g>
        <g transform="matrix(1,0,0,1,35.2592,-29.3003)">
            <path d="M24.741,31.695L24.741,44.771" style="fill:none;stroke:black;stroke-width:3px;"/>
        </g>
        <g transform="matrix(1,0,0,1,55.1511,-29.3003)">
            <path d="M24.741,31.695L24.741,44.771" style="fill:none;stroke:black;stroke-width:3px;"/>
        </g>
        <g transform="matrix(1,0,0,1,75.1666,-29.3003)">
            <path d="M24.741,31.695L24.741,44.771" style="fill:none;stroke:black;stroke-width:3px;"/>
        </g>
    </g>
    <g id="top-filmstrip1" serif:id="top filmstrip" transform="matrix(1,0,0,1,5.32907e-15,103.071)">
        <g transform="matrix(1,0,0,1.15541,-5.32907e-15,1.46343)">
            <rect x="0" y="0" width="120" height="12.124" style="fill:rgb(235,235,235);stroke:black;stroke-width:2.78px;"/>
        </g>
        <g transform="matrix(1,0,0,1,-4.89128,-29.3003)">
            <path d="M24.741,31.695L24.741,44.771" style="fill:none;stroke:black;stroke-width:3px;"/>
        </g>
        <g transform="matrix(1,0,0,1,15.2477,-29.3003)">
            <path d="M24.741,31.695L24.741,44.771" style="fill:none;stroke:black;stroke-width:3px;"/>
        </g>
        <g transform="matrix(1,0,0,1,35.2592,-29.3003)">
            <path d="M24.741,31.695L24.741,44.771" style="fill:none;stroke:black;stroke-width:3px;"/>
        </g>
        <g transform="matrix(1,0,0,1,55.1511,-29.3003)">
            <path d="M24.741,31.695L24.741,44.771" style="fill:none;stroke:black;stroke-width:3px;"/>
        </g>
        <g transform="matrix(1,0,0,1,75.1666,-29.3003)">
            <path d="M24.741,31.695L24.741,44.771" style="fill:none;stroke:black;stroke-width:3px;"/>
        </g>
    </g>
    <g id="unsupported" transform="matrix(0.683479,0,0,0.683479,18.9912,18.9912)">
        <g transform="matrix(1,0,0,1,21.4308,-0.579168)">
            <circle cx="38.569" cy="60.579" r="23.848" style="fill:rgb(235,235,235);stroke:rgb(190,0,0);stroke-width:4.39px;"/>
        </g>
        <g transform="matrix(0.366198,-0.366198,0.366198,0.366198,23.3469,-27.177)">
            <path d="M-68.985,127.6L-68.985,169.076L-27.509,169.076L-68.985,169.076L-68.985,210.551L-68.985,169.076L-110.46,169.076L-68.985,169.076L-68.985,127.6Z" style="fill:rgb(235,235,235);stroke:rgb(190,0,0);stroke-width:8.48px;"/>
        </g>
    </g>
</svg>
